<svg xmlns="http://www.w3.org/2000/svg" id="canvas" viewBox="349.492 280.135 752.848 157.657"><path d="M 374.08,328.87 C 373.08 330.58, 373.38 332.72, 373.59 337.17 C 373.81 341.62, 374.46 344.76, 375.17 351.12 C 375.87 357.49, 376.31 361.81, 377.12 368.99 C 377.93 376.17, 378.50 380.14, 379.21 387.02 C 379.93 393.89, 380.29 397.38, 380.70 403.36 C 381.10 409.34, 381.29 412.21, 381.23 416.91 C 381.17 421.61, 380.34 423.84, 380.40 426.86 C 380.45 429.88, 381.06 430.56, 381.53 432.03 C 381.99 433.49, 382.09 433.67, 382.73 434.19 C 383.37 434.72, 383.90 434.97, 384.74 434.65 C 385.57 434.32, 386.13 434.11, 386.90 432.56 C 387.66 431.01, 388.48 430.10, 388.57 426.90 C 388.67 423.71, 387.91 421.39, 387.35 416.59 C 386.80 411.79, 386.46 408.93, 385.80 402.91 C 385.15 396.90, 384.76 393.41, 384.07 386.52 C 383.37 379.63, 382.94 375.66, 382.33 368.48 C 381.72 361.29, 381.48 356.95, 381.03 350.59 C 380.57 344.23, 380.53 341.05, 380.05 336.66 C 379.56 332.26, 379.79 330.16, 378.60 328.60 C 377.40 327.05, 375.08 327.16, 374.08 328.87" style="stroke: black; fill: black;"/><path d="M 357.72,326.82 C 359.29 325.72, 359.51 323.47, 360.89 320.17 C 362.27 316.88, 362.51 314.36, 364.63 310.37 C 366.74 306.37, 368.16 303.63, 371.47 300.20 C 374.78 296.77, 377.00 295.29, 381.19 293.22 C 385.38 291.15, 387.94 290.46, 392.41 289.85 C 396.88 289.24, 399.35 289.35, 403.54 290.17 C 407.73 290.99, 409.92 291.86, 413.36 293.94 C 416.81 296.02, 418.42 297.57, 420.76 300.57 C 423.10 303.56, 424.03 305.34, 425.05 308.91 C 426.06 312.48, 426.24 314.45, 425.84 318.41 C 425.44 322.37, 424.79 324.62, 423.03 328.71 C 421.28 332.81, 419.93 335.02, 417.07 338.89 C 414.22 342.76, 412.23 344.74, 408.77 348.07 C 405.30 351.40, 403.17 353.00, 399.75 355.54 C 396.34 358.08, 394.23 358.65, 391.69 360.76 C 389.15 362.88, 388.06 363.79, 387.07 366.13 C 386.07 368.46, 386.06 369.98, 386.73 372.44 C 387.40 374.90, 388.02 376.64, 390.43 378.43 C 392.83 380.22, 394.85 380.06, 398.76 381.39 C 402.67 382.72, 405.20 383.30, 409.98 385.07 C 414.77 386.84, 417.56 387.96, 422.71 390.24 C 427.86 392.53, 430.62 393.87, 435.73 396.50 C 440.84 399.13, 443.50 400.63, 448.24 403.37 C 452.99 406.12, 455.25 407.57, 459.44 410.21 C 463.64 412.85, 465.58 414.18, 469.22 416.57 C 472.86 418.97, 474.55 420.15, 477.65 422.18 C 480.75 424.21, 481.98 425.45, 484.73 426.73 C 487.47 428.01, 489.04 428.21, 491.38 428.60 C 493.73 428.98, 494.77 428.95, 496.44 428.65 C 498.12 428.34, 498.87 427.84, 499.75 427.07 C 500.64 426.30, 500.94 425.78, 500.88 424.80 C 500.81 423.82, 500.01 422.87, 499.44 422.16 C 498.88 421.44, 498.65 421.58, 498.07 421.24 C 497.49 420.90, 497.45 420.77, 496.55 420.43 C 495.64 420.09, 495.14 420.11, 493.53 419.55 C 491.93 419.00, 490.94 418.54, 488.53 417.66 C 486.12 416.78, 484.65 416.55, 481.49 415.15 C 478.33 413.76, 476.51 412.73, 472.74 410.69 C 468.96 408.65, 466.92 407.41, 462.60 404.94 C 458.27 402.47, 455.94 401.06, 451.11 398.34 C 446.27 395.63, 443.55 394.12, 438.41 391.38 C 433.27 388.64, 430.47 387.25, 425.39 384.64 C 420.30 382.03, 417.54 380.72, 412.96 378.34 C 408.39 375.96, 406.01 374.62, 402.49 372.74 C 398.98 370.86, 397.58 369.56, 395.38 368.95 C 393.19 368.33, 392.11 369.38, 391.52 369.66 C 390.93 369.95, 391.28 370.75, 392.44 370.37 C 393.59 369.99, 394.90 369.61, 397.30 367.77 C 399.70 365.93, 401.22 364.18, 404.45 361.18 C 407.69 358.19, 409.89 356.47, 413.47 352.78 C 417.04 349.09, 419.20 347.03, 422.33 342.75 C 425.47 338.46, 427.08 336.09, 429.15 331.36 C 431.22 326.64, 432.15 323.99, 432.67 319.12 C 433.19 314.25, 433.05 311.57, 431.75 307.00 C 430.46 302.43, 429.18 300.05, 426.19 296.28 C 423.19 292.52, 421.06 290.67, 416.77 288.18 C 412.48 285.69, 409.76 284.73, 404.72 283.83 C 399.67 282.93, 396.80 282.93, 391.55 283.68 C 386.29 284.43, 383.43 285.23, 378.47 287.57 C 373.50 289.90, 370.78 291.54, 366.71 295.37 C 362.65 299.20, 360.82 302.25, 358.15 306.71 C 355.49 311.16, 354.42 313.83, 353.40 317.63 C 352.37 321.43, 352.17 323.86, 353.04 325.70 C 353.90 327.54, 356.15 327.93, 357.72 326.82" style="stroke: black; fill: black;"/><path d="M 499.98,377.05 C 498.80 378.12, 498.38 379.01, 498.19 381.22 C 498.00 383.43, 498.12 385.02, 499.05 388.10 C 499.98 391.17, 501.30 393.12, 502.83 396.59 C 504.36 400.06, 505.25 402.10, 506.70 405.44 C 508.14 408.78, 508.41 410.80, 510.05 413.29 C 511.69 415.78, 513.11 416.68, 514.89 417.89 C 516.67 419.10, 517.62 419.46, 518.95 419.34 C 520.28 419.22, 521.06 418.46, 521.53 417.27 C 521.99 416.07, 521.68 415.22, 521.28 413.36 C 520.89 411.50, 520.64 410.38, 519.56 407.99 C 518.48 405.60, 517.22 404.45, 515.88 401.42 C 514.54 398.39, 513.90 396.27, 512.86 392.85 C 511.82 389.42, 511.69 387.19, 510.67 384.31 C 509.66 381.43, 509.11 380.12, 507.80 378.44 C 506.49 376.76, 505.68 376.17, 504.12 375.89 C 502.55 375.61, 501.17 375.99, 499.98 377.05" style="stroke: black; fill: black;"/><path d="M 504.00,339.36 C 504.63 337.73, 504.69 336.41, 503.86 336.74 C 503.03 337.07, 500.70 339.63, 499.84 341.00 C 498.98 342.37, 498.85 343.71, 499.55 343.59 C 500.26 343.47, 502.81 340.71, 503.36 340.40 C 503.90 340.10, 503.09 340.81, 502.29 342.05 C 501.48 343.30, 499.64 346.04, 499.33 346.61 C 499.02 347.17, 499.81 346.35, 500.74 344.90 C 501.68 343.45, 503.38 340.99, 504.00 339.36" style="stroke: black; fill: black;"/><path d="M 592.91,385.19 C 593.17 383.54, 592.80 382.28, 591.29 380.61 C 589.79 378.94, 588.42 377.65, 585.38 376.86 C 582.35 376.07, 579.91 375.88, 576.12 376.66 C 572.33 377.45, 570.19 378.59, 566.42 380.76 C 562.65 382.93, 560.61 384.39, 557.26 387.51 C 553.92 390.63, 552.06 392.59, 549.70 396.35 C 547.35 400.12, 546.13 402.37, 545.47 406.35 C 544.82 410.33, 544.99 412.78, 546.43 416.25 C 547.87 419.72, 549.52 421.56, 552.68 423.69 C 555.84 425.83, 558.21 426.41, 562.24 426.93 C 566.27 427.44, 568.62 427.21, 572.83 426.28 C 577.03 425.35, 579.29 424.52, 583.25 422.28 C 587.22 420.04, 589.34 418.61, 592.65 415.08 C 595.97 411.56, 597.47 409.34, 599.84 404.63 C 602.21 399.93, 603.17 397.13, 604.51 391.55 C 605.86 385.98, 606.29 382.77, 606.58 376.76 C 606.86 370.76, 606.58 367.33, 605.95 361.54 C 605.31 355.75, 604.61 352.83, 603.40 347.81 C 602.19 342.79, 601.56 340.25, 599.88 336.42 C 598.21 332.60, 597.32 330.22, 595.03 328.69 C 592.73 327.16, 590.32 327.42, 588.40 328.77 C 586.49 330.12, 585.36 331.89, 585.44 335.42 C 585.52 338.95, 587.02 341.27, 588.80 346.40 C 590.58 351.54, 591.95 355.05, 594.33 361.11 C 596.71 367.16, 598.08 370.75, 600.71 376.69 C 603.34 382.63, 604.78 385.59, 607.50 390.81 C 610.21 396.03, 611.62 398.47, 614.27 402.78 C 616.93 407.10, 618.30 408.99, 620.75 412.36 C 623.21 415.73, 624.17 417.49, 626.55 419.63 C 628.92 421.78, 630.47 422.27, 632.62 423.09 C 634.76 423.92, 635.67 423.88, 637.27 423.76 C 638.87 423.65, 639.74 423.18, 640.61 422.51 C 641.47 421.84, 641.84 421.27, 641.58 420.40 C 641.32 419.53, 639.91 418.69, 639.31 418.17 C 638.70 417.65, 638.75 418.02, 638.56 417.80 C 638.38 417.58, 638.78 417.52, 638.37 417.08 C 637.96 416.63, 637.69 416.46, 636.51 415.57 C 635.32 414.67, 634.50 414.17, 632.44 412.60 C 630.38 411.03, 628.85 410.35, 626.21 407.72 C 623.58 405.10, 622.06 403.37, 619.27 399.47 C 616.48 395.58, 614.99 393.25, 612.28 388.26 C 609.57 383.28, 608.13 380.39, 605.70 374.55 C 603.27 368.70, 602.03 365.10, 600.13 359.05 C 598.22 353.00, 597.31 349.34, 596.18 344.30 C 595.05 339.26, 595.50 336.64, 594.48 333.85 C 593.46 331.06, 592.13 330.47, 591.08 330.34 C 590.03 330.22, 588.87 331.35, 589.23 333.22 C 589.59 335.09, 591.25 336.43, 592.88 339.68 C 594.50 342.94, 595.89 345.00, 597.34 349.50 C 598.80 354.01, 599.47 356.84, 600.15 362.23 C 600.84 367.62, 601.08 370.90, 600.78 376.47 C 600.48 382.03, 599.99 385.04, 598.64 390.06 C 597.30 395.08, 596.26 397.59, 594.05 401.58 C 591.83 405.58, 590.45 407.30, 587.56 410.04 C 584.67 412.78, 582.87 413.74, 579.60 415.27 C 576.33 416.80, 574.42 417.24, 571.21 417.70 C 568.00 418.17, 566.22 418.02, 563.55 417.59 C 560.87 417.17, 559.58 416.57, 557.83 415.59 C 556.07 414.60, 555.49 414.20, 554.76 412.66 C 554.04 411.11, 553.77 410.20, 554.21 407.84 C 554.64 405.49, 555.16 403.67, 556.92 400.87 C 558.67 398.08, 560.24 396.22, 562.98 393.87 C 565.72 391.52, 567.71 390.32, 570.63 389.11 C 573.55 387.90, 575.19 387.87, 577.60 387.83 C 580.00 387.79, 580.88 388.61, 582.65 388.91 C 584.42 389.21, 584.97 389.35, 586.45 389.33 C 587.92 389.32, 588.73 389.68, 590.03 388.85 C 591.32 388.02, 592.66 386.84, 592.91 385.19" style="stroke: black; fill: black;"/><path d="M 654.40,332.48 C 653.17 333.62, 652.39 334.71, 652.42 337.52 C 652.45 340.33, 653.45 342.13, 654.56 346.53 C 655.66 350.93, 656.58 354.07, 657.95 359.52 C 659.31 364.97, 660.09 368.27, 661.39 373.77 C 662.69 379.27, 663.33 382.19, 664.44 387.02 C 665.55 391.84, 665.99 394.06, 666.94 397.90 C 667.88 401.73, 667.82 403.58, 669.17 406.21 C 670.52 408.84, 671.56 409.83, 673.68 411.06 C 675.80 412.30, 677.27 412.60, 679.76 412.39 C 682.25 412.18, 683.94 411.70, 686.15 410.03 C 688.36 408.35, 689.10 406.75, 690.81 404.03 C 692.53 401.31, 693.00 399.21, 694.73 396.43 C 696.45 393.65, 697.75 392.18, 699.44 390.13 C 701.12 388.07, 702.00 387.20, 703.16 386.16 C 704.32 385.13, 704.52 384.78, 705.23 384.95 C 705.94 385.12, 705.99 385.65, 706.71 387.03 C 707.42 388.41, 707.61 389.66, 708.80 391.84 C 709.99 394.02, 711.08 395.33, 712.66 397.93 C 714.24 400.53, 714.95 402.13, 716.71 404.84 C 718.46 407.54, 719.29 409.12, 721.42 411.45 C 723.55 413.79, 724.81 414.83, 727.34 416.52 C 729.86 418.21, 731.34 419.10, 734.04 419.91 C 736.74 420.72, 738.55 420.79, 740.84 420.57 C 743.12 420.36, 744.08 419.80, 745.47 418.84 C 746.86 417.88, 747.55 417.09, 747.79 415.77 C 748.02 414.45, 747.39 413.24, 746.63 412.25 C 745.86 411.26, 745.08 411.31, 743.94 410.83 C 742.80 410.35, 742.34 410.10, 740.93 409.85 C 739.52 409.61, 738.42 409.96, 736.88 409.60 C 735.34 409.24, 734.66 409.11, 733.22 408.05 C 731.79 407.00, 731.16 406.12, 729.73 404.32 C 728.30 402.52, 727.48 401.44, 726.08 399.05 C 724.68 396.66, 724.13 395.15, 722.75 392.37 C 721.37 389.59, 721.02 387.71, 719.17 385.17 C 717.33 382.63, 716.08 381.32, 713.53 379.68 C 710.98 378.03, 709.40 377.30, 706.43 376.93 C 703.46 376.55, 701.64 376.63, 698.69 377.79 C 695.73 378.96, 694.24 380.28, 691.64 382.74 C 689.05 385.21, 687.98 387.20, 685.71 390.13 C 683.44 393.05, 681.95 394.77, 680.30 397.38 C 678.65 399.99, 677.96 401.38, 677.44 403.17 C 676.93 404.97, 677.55 405.77, 677.70 406.36 C 677.86 406.96, 678.29 406.92, 678.22 406.13 C 678.15 405.35, 678.16 404.55, 677.34 402.45 C 676.51 400.36, 675.42 399.06, 674.09 395.65 C 672.77 392.25, 672.01 390.08, 670.71 385.42 C 669.41 380.77, 668.76 377.85, 667.59 372.37 C 666.43 366.90, 665.83 363.54, 664.88 358.05 C 663.93 352.56, 663.43 349.36, 662.85 344.94 C 662.27 340.53, 662.84 338.58, 661.99 335.96 C 661.13 333.34, 660.10 332.53, 658.58 331.83 C 657.06 331.14, 655.64 331.34, 654.40 332.48" style="stroke: black; fill: black;"/><path d="M 766.86,383.04 C 765.44 383.92, 764.87 384.91, 764.24 387.10 C 763.61 389.29, 763.28 390.99, 763.70 393.99 C 764.13 396.99, 765.04 398.94, 766.38 402.09 C 767.72 405.24, 768.48 407.09, 770.41 409.73 C 772.33 412.36, 773.63 413.50, 776.00 415.27 C 778.38 417.03, 779.67 417.71, 782.28 418.55 C 784.89 419.40, 786.36 419.64, 789.08 419.50 C 791.80 419.36, 793.30 418.97, 795.88 417.86 C 798.45 416.75, 799.72 415.81, 801.95 413.95 C 804.17 412.10, 805.53 410.80, 807.01 408.59 C 808.48 406.38, 809.10 404.61, 809.32 402.89 C 809.54 401.16, 808.58 400.22, 808.12 399.96 C 807.66 399.71, 806.93 400.30, 807.02 401.61 C 807.12 402.93, 807.18 404.40, 808.59 406.54 C 810.01 408.69, 811.43 410.18, 814.11 412.33 C 816.79 414.48, 818.70 415.70, 822.00 417.29 C 825.30 418.88, 827.12 419.52, 830.61 420.29 C 834.10 421.06, 835.98 421.32, 839.45 421.12 C 842.93 420.92, 844.80 420.59, 847.98 419.31 C 851.16 418.04, 852.80 417.05, 855.37 414.75 C 857.93 412.45, 859.19 410.93, 860.80 407.81 C 862.41 404.70, 862.90 402.72, 863.41 399.17 C 863.93 395.63, 863.94 393.53, 863.36 390.08 C 862.79 386.62, 862.04 384.71, 860.54 381.91 C 859.03 379.10, 857.86 377.64, 855.84 376.05 C 853.81 374.46, 852.20 374.16, 850.41 373.97 C 848.62 373.78, 847.78 374.27, 846.90 375.09 C 846.02 375.91, 846.01 376.98, 846.00 378.06 C 846.00 379.15, 846.40 379.47, 846.87 380.51 C 847.35 381.54, 847.65 381.95, 848.38 383.22 C 849.11 384.50, 849.76 385.12, 850.50 386.87 C 851.25 388.62, 851.74 389.80, 852.12 391.98 C 852.50 394.16, 852.62 395.55, 852.40 397.76 C 852.17 399.96, 851.82 401.16, 850.99 402.99 C 850.17 404.83, 849.66 405.65, 848.28 406.92 C 846.90 408.20, 845.97 408.65, 844.08 409.36 C 842.19 410.07, 841.06 410.35, 838.83 410.49 C 836.61 410.63, 835.25 410.61, 832.95 410.05 C 830.65 409.50, 829.40 409.08, 827.31 407.69 C 825.23 406.30, 824.33 405.05, 822.54 403.11 C 820.75 401.17, 820.30 399.69, 818.36 398.00 C 816.42 396.31, 815.29 395.46, 812.85 394.66 C 810.42 393.85, 808.71 393.55, 806.17 393.97 C 803.63 394.39, 802.06 395.29, 800.15 396.76 C 798.23 398.24, 797.86 399.63, 796.59 401.36 C 795.33 403.09, 794.97 404.07, 793.83 405.41 C 792.69 406.76, 792.06 407.28, 790.89 408.08 C 789.72 408.88, 789.13 409.13, 787.98 409.41 C 786.84 409.69, 786.25 409.81, 785.15 409.48 C 784.06 409.15, 783.48 408.90, 782.50 407.77 C 781.52 406.63, 781.12 405.76, 780.27 403.79 C 779.43 401.82, 778.92 400.47, 778.27 397.94 C 777.63 395.40, 777.80 393.54, 777.05 391.10 C 776.30 388.66, 775.67 387.42, 774.52 385.73 C 773.38 384.05, 772.86 383.21, 771.33 382.67 C 769.79 382.13, 768.27 382.15, 766.86 383.04" style="stroke: black; fill: black;"/><path d="M 927.51,384.38 C 927.87 382.70, 927.54 381.25, 926.04 379.44 C 924.54 377.62, 923.10 376.21, 920.00 375.29 C 916.90 374.36, 914.47 374.20, 910.53 374.83 C 906.59 375.46, 904.40 376.49, 900.32 378.45 C 896.25 380.40, 893.93 381.76, 890.17 384.61 C 886.40 387.45, 884.31 389.23, 881.50 392.66 C 878.68 396.10, 877.11 398.07, 876.07 401.77 C 875.04 405.47, 875.19 407.79, 876.32 411.16 C 877.44 414.52, 878.80 416.46, 881.70 418.61 C 884.60 420.75, 886.94 421.31, 890.82 421.90 C 894.69 422.48, 896.98 422.17, 901.07 421.53 C 905.16 420.89, 907.34 420.19, 911.27 418.70 C 915.20 417.21, 917.26 416.24, 920.74 414.07 C 924.21 411.89, 925.89 410.52, 928.67 407.81 C 931.44 405.11, 933.03 403.52, 934.62 400.55 C 936.21 397.57, 936.87 395.45, 936.63 392.92 C 936.39 390.40, 935.18 388.69, 933.43 387.93 C 931.67 387.17, 929.45 387.61, 927.86 389.11 C 926.26 390.62, 925.33 392.60, 925.46 395.45 C 925.58 398.30, 926.60 400.34, 928.48 403.36 C 930.36 406.38, 932.16 407.93, 934.87 410.57 C 937.58 413.21, 939.06 414.56, 942.04 416.56 C 945.01 418.57, 946.59 419.47, 949.73 420.60 C 952.87 421.74, 954.56 422.06, 957.72 422.24 C 960.89 422.42, 962.57 422.29, 965.54 421.49 C 968.52 420.68, 970.03 419.97, 972.60 418.22 C 975.17 416.47, 976.34 415.20, 978.39 412.75 C 980.44 410.29, 981.55 408.70, 982.87 405.93 C 984.18 403.16, 984.93 401.13, 984.98 398.89 C 985.04 396.65, 984.04 395.39, 983.15 394.73 C 982.27 394.07, 981.19 394.44, 980.57 395.59 C 979.94 396.74, 979.55 398.15, 980.03 400.46 C 980.52 402.77, 981.21 404.61, 983.00 407.15 C 984.79 409.68, 986.44 411.07, 989.00 413.13 C 991.55 415.19, 992.96 416.10, 995.77 417.44 C 998.57 418.78, 1000.03 419.34, 1003.01 419.84 C 1006.00 420.33, 1007.64 420.36, 1010.68 419.92 C 1013.71 419.47, 1015.34 418.97, 1018.20 417.60 C 1021.07 416.23, 1022.36 415.01, 1025.01 413.05 C 1027.65 411.09, 1028.91 409.76, 1031.42 407.81 C 1033.92 405.86, 1035.36 404.83, 1037.54 403.29 C 1039.73 401.75, 1040.69 400.94, 1042.35 400.11 C 1044.00 399.28, 1044.45 398.99, 1045.81 399.14 C 1047.17 399.28, 1047.63 399.76, 1049.15 400.84 C 1050.68 401.92, 1051.39 402.87, 1053.42 404.52 C 1055.45 406.17, 1056.81 407.09, 1059.32 409.07 C 1061.83 411.06, 1063.26 412.32, 1065.96 414.46 C 1068.66 416.61, 1070.12 417.70, 1072.83 419.80 C 1075.53 421.90, 1076.91 423.01, 1079.49 424.98 C 1082.08 426.94, 1083.43 428.14, 1085.74 429.62 C 1088.06 431.09, 1089.19 431.69, 1091.07 432.36 C 1092.95 433.03, 1093.80 432.97, 1095.15 432.98 C 1096.49 432.99, 1096.94 433.01, 1097.77 432.43 C 1098.60 431.85, 1099.11 431.08, 1099.28 430.08 C 1099.46 429.08, 1099.23 428.63, 1098.66 427.44 C 1098.09 426.24, 1097.80 425.54, 1096.44 424.10 C 1095.08 422.66, 1094.09 421.74, 1091.85 420.25 C 1089.60 418.75, 1087.85 418.27, 1085.22 416.65 C 1082.60 415.03, 1081.29 414.09, 1078.71 412.14 C 1076.13 410.18, 1074.82 409.08, 1072.33 406.88 C 1069.85 404.67, 1068.66 403.38, 1066.30 401.11 C 1063.94 398.83, 1063.00 397.41, 1060.52 395.50 C 1058.04 393.59, 1056.68 392.69, 1053.88 391.57 C 1051.08 390.44, 1049.51 390.05, 1046.51 389.86 C 1043.51 389.68, 1041.87 389.77, 1038.88 390.64 C 1035.89 391.51, 1034.35 392.46, 1031.55 394.21 C 1028.76 395.96, 1027.49 397.40, 1024.91 399.38 C 1022.32 401.36, 1021.00 402.50, 1018.63 404.11 C 1016.26 405.72, 1015.07 406.36, 1013.08 407.44 C 1011.08 408.52, 1010.34 409.03, 1008.65 409.50 C 1006.96 409.98, 1006.18 410.04, 1004.63 409.81 C 1003.07 409.58, 1002.27 409.35, 1000.89 408.34 C 999.51 407.32, 998.89 406.56, 997.71 404.75 C 996.53 402.93, 996.31 401.41, 995.01 399.24 C 993.70 397.07, 993.07 395.62, 991.19 393.90 C 989.30 392.18, 987.98 391.29, 985.58 390.64 C 983.17 389.99, 981.53 389.86, 979.17 390.64 C 976.81 391.41, 975.40 392.49, 973.79 394.51 C 972.18 396.54, 972.07 398.40, 971.13 400.75 C 970.18 403.09, 970.02 404.41, 969.08 406.24 C 968.14 408.08, 967.62 408.84, 966.40 409.91 C 965.18 410.99, 964.55 411.26, 962.98 411.64 C 961.41 412.02, 960.47 412.03, 958.55 411.80 C 956.63 411.58, 955.50 411.29, 953.39 410.52 C 951.27 409.75, 950.01 409.40, 947.97 407.95 C 945.94 406.51, 944.73 405.50, 943.23 403.30 C 941.73 401.10, 941.48 399.31, 940.49 396.95 C 939.50 394.60, 939.54 393.17, 938.28 391.52 C 937.03 389.87, 935.94 389.26, 934.22 388.70 C 932.49 388.14, 931.14 388.22, 929.65 388.73 C 928.16 389.23, 927.69 389.84, 926.78 391.24 C 925.87 392.63, 926.07 393.64, 925.10 395.70 C 924.12 397.76, 923.73 399.32, 921.93 401.53 C 920.12 403.74, 918.79 404.96, 916.06 406.75 C 913.33 408.54, 911.52 409.37, 908.29 410.48 C 905.05 411.58, 903.08 411.98, 899.88 412.28 C 896.68 412.58, 894.88 412.36, 892.29 411.99 C 889.69 411.61, 888.51 411.11, 886.90 410.40 C 885.29 409.69, 884.68 409.62, 884.23 408.43 C 883.78 407.23, 883.90 406.53, 884.66 404.43 C 885.43 402.34, 885.95 400.58, 888.03 397.95 C 890.12 395.32, 891.92 393.53, 895.08 391.27 C 898.23 389.01, 900.53 387.82, 903.81 386.66 C 907.08 385.50, 908.88 385.40, 911.46 385.46 C 914.03 385.53, 914.88 386.51, 916.69 386.98 C 918.51 387.45, 919.02 387.64, 920.53 387.81 C 922.04 387.97, 922.85 388.49, 924.25 387.81 C 925.65 387.12, 927.16 386.05, 927.51 384.38" style="stroke: black; fill: black;"/></svg>